<svg width="256" height="256" xmlns="http://www.w3.org/2000/svg">
	<title/>
	<g transform="scale(10.666666666666667, 10.666666666666667)">
		<!-- code -->
		<polygon fill="#4c9ae8" points="15.643 18.357 14.229 16.943 19.186 12 14.279 7.107 15.693 5.693 22 12 15.643 18.357"/>
		<polygon fill="#4c9ae8" points="8.357 18.357 9.771 16.943 4.814 12 9.721 7.107 8.307 5.693 2 12 8.357 18.357"/>
	</g>
	<g transform="scale(1.3, 1.3) translate(60, 84)">
		<!-- search -->
		<path fill="#004e85" d="m22.5,23.5a1,1 0 0 1 -0.71,-0.29l-3.43,-3.43a1,1 0 0 1 1.42,-1.42l3.43,3.43a1,1 0 0 1 0,1.42a1,1 0 0 1 -0.71,0.29z"/>
		<path fill="#0068a5" d="m12,1a11,11 0 1 0 11,11a11,11 0 0 0 -11,-11z"/>
		<path fill="#a6c1e5" d="m12,5a7,7 0 0 0 0,14a7,7 0 0 0 7,-7a7,7 0 0 0 -7,-7z"/>
		<path fill="#002b55" d="m30.52,27.48l-6.52,-6.48a1,1 0 0 0 -1.42,0l-1.81,1.81a1,1 0 0 0 0,1.42l6.5,6.5a1,1 0 0 0 1.42,0l1.81,-1.81a1,1 0 0 0 0.02,-1.44z"/>
	</g>
	<g transform="scale(0.7, 0.7) translate(150, 120)">
		<!-- database -->
		<path d="M90,71.5H38c-2.2,0-4-1.8-4-4v-7c0-2.2,1.8-4,4-4h52c2.2,0,4,1.8,4,4v7    C94,69.7,92.2,71.5,90,71.5z" fill="#2B3D4C" id="base_1_"/>
		<path d="M40,69L40,69c-1.1,0-2-0.9-2-2v-6c0-1.1,0.9-2,2-2h0c1.1,0,2,0.9,2,2v6    C42,68.1,41.1,69,40,69z" fill="#22A7F0" id="light_1_"/>
		<path d="M90,56.5H38c-2.2,0-4-1.8-4-4v-7c0-2.2,1.8-4,4-4h52c2.2,0,4,1.8,4,4v7    C94,54.7,92.2,56.5,90,56.5z" fill="#22313F" id="base"/>
		<path d="M40,54L40,54c-1.1,0-2-0.9-2-2v-6c0-1.1,0.9-2,2-2h0c1.1,0,2,0.9,2,2v6C42,53.1,41.1,54,40,54z    " fill="#22A7F0" id="light"/>
		<path d="M90,86.5H38c-2.2,0-4-1.8-4-4v-7c0-2.2,1.8-4,4-4h52c2.2,0,4,1.8,4,4v7    C94,84.7,92.2,86.5,90,86.5z" fill="#22313F" id="base_2_"/>
		<path d="M40,84L40,84c-1.1,0-2-0.9-2-2v-6c0-1.1,0.9-2,2-2h0c1.1,0,2,0.9,2,2v6    C42,83.1,41.1,84,40,84z" fill="#22A7F0" id="light_2_"/>
	</g>
</svg>